<?xml version="1.0" encoding="utf-8"?>
<!-- Generator: Adobe Illustrator 23.0.2, SVG Export Plug-In . SVG Version: 6.00 Build 0)  -->
<svg version="1.1" id="cq-images-image" xmlns="http://www.w3.org/2000/svg" xmlns:xlink="http://www.w3.org/1999/xlink" x="0px"
	 y="0px" viewBox="0 0 147.7 54.6" style="enable-background:new 0 0 147.7 54.6;" xml:space="preserve">
<style type="text/css">
	.st0{fill:none;stroke:#000000;stroke-width:3;}
</style>
<path d="M144.7,3v48.6h-32.8L85.2,3H144.7 M147.7,0H80.1l30,54.6h37.6V0L147.7,0z"/>
<g>
	<path d="M69,20.8H42.7c-0.8,0-1.5-0.7-1.5-1.5s0.7-1.5,1.5-1.5H69c0.8,0,1.5,0.7,1.5,1.5S69.8,20.8,69,20.8z"/>
</g>
<g>
	<path d="M69,28.9H42.7c-0.8,0-1.5-0.7-1.5-1.5s0.7-1.5,1.5-1.5H69c0.8,0,1.5,0.7,1.5,1.5S69.8,28.9,69,28.9z"/>
</g>
<g>
	<path d="M52.7,37.3h-10c-0.8,0-1.5-0.7-1.5-1.5s0.7-1.5,1.5-1.5h10c0.8,0,1.5,0.7,1.5,1.5S53.5,37.3,52.7,37.3z"/>
</g>
<path class="st0" d="M1.7,12.2h32.6v30.2H1.7V12.2z"/>
<g>
	<path d="M11.5,31.4l-1.3-2.6H9.5v2.6H7.1V23h3.4c0.9,0,1.7,0.3,2.3,0.8c0.6,0.5,0.9,1.3,0.9,2.1c0,0.5-0.1,0.9-0.3,1.3
		c-0.2,0.4-0.5,0.7-1,1l1.7,3.1H11.5z M9.5,25.2v1.6h0.9c0.3,0,0.5-0.1,0.6-0.2s0.2-0.3,0.2-0.6c0-0.2-0.1-0.4-0.2-0.6
		c-0.1-0.1-0.4-0.2-0.6-0.2H9.5z"/>
	<path d="M20.4,30.8c-0.6,0.6-1.5,0.8-2.5,0.8s-1.8-0.3-2.5-0.8c-0.6-0.6-0.9-1.3-0.9-2.2V23h2.4v5.3c0,0.6,0.3,0.9,1,0.9
		s1-0.3,1-0.9V23h2.4v5.6C21.3,29.5,21,30.2,20.4,30.8z"/>
	<path d="M27.8,27.1c0.7,0.4,1.1,1,1.1,1.9c0,0.8-0.3,1.4-0.8,1.8c-0.5,0.4-1.2,0.7-2.2,0.7h-3.6V23h3.3c0.9,0,1.7,0.2,2.2,0.6
		c0.5,0.4,0.7,1,0.7,1.8C28.6,26.1,28.3,26.7,27.8,27.1z M25.6,25.1h-0.8v1.1l0.9,0c0.3,0,0.5-0.2,0.5-0.6c0-0.2-0.1-0.3-0.2-0.4
		C25.9,25.1,25.7,25.1,25.6,25.1z M25.8,29.3c0.2,0,0.4-0.1,0.5-0.2c0.1-0.1,0.2-0.3,0.2-0.4c0-0.3-0.2-0.5-0.5-0.6l-1.1,0v1.2H25.8
		z"/>
</g>
</svg>
