<?xml version="1.0" encoding="utf-8"?>
<!-- Generator: Adobe Illustrator 23.0.3, SVG Export Plug-In . SVG Version: 6.00 Build 0)  -->
<svg version="1.1" id="Calque_1" xmlns="http://www.w3.org/2000/svg" xmlns:xlink="http://www.w3.org/1999/xlink" x="0px" y="0px"
	 viewBox="0 0 707 131.3" style="enable-background:new 0 0 707 131.3;" xml:space="preserve">
<path style="fill:#FFFFFF;" d="M633,131.3c-3.7-0.8-7.5-1.4-11.1-2.3c-20.2-4.9-33.4-17.3-39.5-37c-5.2-16.7-5.8-33.7-1.4-50.8
	c5.4-21.1,19-33.9,40-38.7c14.5-3.3,29.1-3.3,43.6,0c24.1,5.4,38.9,23.3,41.5,49.5c0.2,1.8,0.7,3.6,1,5.3c0,5.7,0,11.3,0,17
	c-0.3,1.8-0.8,3.5-1,5.3c-2.6,26.2-17.1,43.5-41.4,49.3c-3.8,0.9-7.7,1.6-11.6,2.4C646.3,131.3,639.7,131.3,633,131.3z M643,21.1
	c-21.5,0-34,9-38.4,28.2c-2.7,11.7-2.5,23.5,0.7,35.1c3.9,14.2,13.1,22.9,27.8,25c5.1,0.7,10.3,1,15.4,0.6
	c16.5-1.2,28-10.6,31.2-26.7c1.8-9.2,2.2-18.9,1.3-28.2C678.9,32.3,665.9,21.2,643,21.1z"/>
<path style="fill:#FFFFFF;" d="M0,129.3c1.3-2.6,2.8-5.2,4-7.8C20.4,82.9,36.8,44.3,53,5.6c1.4-3.4,3.2-4.8,7-4.6
	C65.8,1.4,71.6,1,77.5,1.3c1.6,0.1,3.9,1.3,4.5,2.6c18.1,41.3,36,82.7,53.9,124c0.3,0.6,0.3,1.3,0.5,2.4c-7.9,0-15.5,0.1-23.1-0.1
	c-1.2,0-2.9-1.9-3.5-3.2c-4-9.1-8-18.3-11.6-27.6C97,96.1,95.4,95,92,95.1c-11,0.2-22,0.1-33,0.1c-1.6,0-3.2-0.1-5.5-0.2
	c2.6-6.7,4.9-12.9,7.6-18.9c0.4-1,2.6-1.6,4-1.7c7.2-0.2,14.3-0.1,22.4-0.1c-6.7-16.1-13.2-31.7-20.1-48.1c-1,2.2-1.8,3.7-2.4,5.3
	c-12.8,31.4-25.6,62.8-38.3,94.3c-1.4,3.4-3,4.8-6.9,4.6c-6.6-0.4-13.3-0.1-20-0.1C0,129.9,0,129.6,0,129.3z"/>
<path style="fill:#FFFFFF;" d="M493.4,1.2c-18.8,20.6-36.7,40.1-55,60.2c20.1,22.7,40,45.4,60.8,68.9c-11.4,0-21.8,0.1-32.1-0.1
	c-1,0-2.2-1.3-3-2.3c-15.4-18.6-30.8-37.1-46.2-55.8c-3.1-3.8-2.6-16.9,0.7-20.6c14.3-15.8,28.5-31.7,42.9-47.4
	c1.5-1.6,4.1-2.8,6.3-2.9C475.8,1,484,1.2,493.4,1.2z"/>
<path style="fill:#FFFFFF;" d="M239.8,1.4c8,0,15.6,0,23.4,0c0,43,0,85.7,0,128.6c-7.9,0-15.5,0-23.4,0
	C239.8,87.3,239.8,44.6,239.8,1.4z"/>
<path style="fill:#FFFFFF;" d="M378.8,1.4c7.9,0,15.5,0,23.4,0c0,43,0,85.7,0,128.6c-7.9,0-15.5,0-23.4,0
	C378.8,87.3,378.8,44.6,378.8,1.4z"/>
</svg>
